<?xml version="1.0" standalone="no"?><!DOCTYPE svg PUBLIC "-//W3C//DTD SVG 1.1//EN" "http://www.w3.org/Graphics/SVG/1.1/DTD/svg11.dtd"><svg t="1680881195456" class="icon" viewBox="0 0 1024 1024" version="1.1" xmlns="http://www.w3.org/2000/svg" p-id="3332" xmlns:xlink="http://www.w3.org/1999/xlink" width="200" height="200"><path d="M511.853704 518.870693a21.676959 21.676959 0 0 1-15.225483-6.365456l-120.427548-120.427548a92.643192 92.643192 0 0 1 131.180008-130.74991l4.473023 4.559043 4.559043-4.559043a92.643192 92.643192 0 0 1 130.921949 0 92.729212 92.729212 0 0 1 0 131.007969l-120.427548 120.427548a21.676959 21.676959 0 0 1-15.053444 6.107397zM442.091746 277.24142a49.547334 49.547334 0 0 0-35.010009 84.643362l104.771967 105.030026 105.030026-105.030026a49.547334 49.547334 0 0 0 0-70.106037 49.547334 49.547334 0 0 0-70.106037 0l-19.698506 19.698506a21.590939 21.590939 0 0 1-15.225483 6.279436 21.590939 21.590939 0 0 1-15.225483-6.279436l-19.698506-19.698506A49.289275 49.289275 0 0 0 442.091746 277.24142z" p-id="3333"></path><path d="M991.327385 713.963321a21.504919 21.504919 0 0 1-7.655752-1.376315c-3.612826-1.462335-6.967594-2.66661-10.322361-3.870886l-12.988971-4.645062A1363.153824 1363.153824 0 0 0 63.605166 703.726979l-12.730912 4.559043c-3.612826 1.204275-7.053614 2.494571-10.408381 3.784866a21.504919 21.504919 0 0 1-28.902611-16.343739A518.526614 518.526614 0 0 1 3.391392 606.266685a508.462312 508.462312 0 1 1 1009.096833 89.460464 21.24686 21.24686 0 0 1-10.58042 14.967424 20.988801 20.988801 0 0 1-10.58042 3.268748zM511.853704 140.900231A465.882572 465.882572 0 0 0 46.401231 606.266685a478.269405 478.269405 0 0 0 3.354767 56.600947 1405.991623 1405.991623 0 0 1 924.195412 0 478.269405 478.269405 0 0 0 3.354767-56.600947 465.882572 465.882572 0 0 0-465.452473-465.366454z" p-id="3334"></path><path d="M191.000308 1023.634158a126.448925 126.448925 0 0 1-65.546994-18.236171 123.438237 123.438237 0 0 1-57.547164-82.320831L35.90683 760.930064a21.33288 21.33288 0 0 1 13.591109-24.257549A1322.982635 1322.982635 0 0 1 365.878312 662.351514a1357.562545 1357.562545 0 0 1 291.950784 0 1322.982635 1322.982635 0 0 1 316.380373 74.66508 21.4189 21.4189 0 0 1 13.591109 24.343569l-32.08534 162.147091a123.438237 123.438237 0 0 1-57.547164 82.320831 127.395142 127.395142 0 0 1-101.24516 13.074991h-1.204275a1010.559167 1010.559167 0 0 0-567.72987 0h-1.290295a126.620965 126.620965 0 0 1-35.698166 4.731082z m23.655411-46.450625l7.225653 20.644722-6.107397-20.644722a1054.773281 1054.773281 0 0 1 592.159458 0h0.946216a83.955205 83.955205 0 0 0 66.923309-8.601968 80.428398 80.428398 0 0 0 37.676619-53.848318l28.558533-144.082959a1277.994344 1277.994344 0 0 0-288.854076-65.891073 1304.746463 1304.746463 0 0 0-282.66066 0A1277.994344 1277.994344 0 0 0 81.669299 770.736307l28.472513 144.08296a80.600438 80.600438 0 0 0 37.590599 53.848318 83.697146 83.697146 0 0 0 66.923308 8.601967zM577.916816 145.373254h-2.924669a470.269575 470.269575 0 0 0-126.276886 0 21.504919 21.504919 0 0 1-22.537155-12.472853 94.019507 94.019507 0 1 1 171.351197 0 21.590939 21.590939 0 0 1-19.612487 12.472853z m-66.063112-47.482861c17.203935 0 33.719713 0.860197 50.57957 2.49457a54.192397 54.192397 0 0 0 0.430099-6.451476 51.009669 51.009669 0 0 0-102.019337 0 54.192397 54.192397 0 0 0 0 6.451476c17.289955-1.634374 34.235832-2.494571 51.009668-2.49457z" p-id="3335"></path></svg>