<?xml version="1.0" standalone="no"?><!DOCTYPE svg PUBLIC "-//W3C//DTD SVG 1.1//EN" "http://www.w3.org/Graphics/SVG/1.1/DTD/svg11.dtd"><svg t="1680880789963" class="icon" viewBox="0 0 1024 1024" version="1.1" xmlns="http://www.w3.org/2000/svg" p-id="2638" xmlns:xlink="http://www.w3.org/1999/xlink" width="200" height="200"><path d="M512 454.6c107.7 0 195-87.3 195-195s-87.3-195-195-195.1c-107.7 0-195 87.3-195.1 195v0.1c0.1 107.7 87.4 195 195.1 195zM183 585.9c-38.5 97.4-77.4 373.6-77.4 373.6h331.3l-99.6-456.2c-60 0-115.8-14.8-154.3 82.6zM512 503.3l-94 131.3 74 324.9h40l74-324.9zM841 585.9c-38.5-97.4-94.3-82.6-154.3-82.6l-99.6 456.2h331.3S879.5 683.3 841 585.9z m-31.9 168.7H692.9v-25.9h116.2v25.9z" p-id="2639"></path></svg>